<?xml version="1.0" encoding="UTF-8" standalone="no"?>
<!-- Created with Inkscape (http://www.inkscape.org/) -->

<svg
   xmlns:dc="http://purl.org/dc/elements/1.1/"
   xmlns:cc="http://creativecommons.org/ns#"
   xmlns:rdf="http://www.w3.org/1999/02/22-rdf-syntax-ns#"
   xmlns:svg="http://www.w3.org/2000/svg"
   xmlns="http://www.w3.org/2000/svg"
   xmlns:xlink="http://www.w3.org/1999/xlink"
   xmlns:sodipodi="http://sodipodi.sourceforge.net/DTD/sodipodi-0.dtd"
   xmlns:inkscape="http://www.inkscape.org/namespaces/inkscape"
   width="10cm"
   height="10cm"
   viewBox="0 0 354.33071 354.3307"
   id="svg2"
   version="1.1"
   inkscape:version="0.91 r13725"
   sodipodi:docname="slowmotion.svg"
   inkscape:export-filename="/home/hosiet/桌面/slowmotion/slowmotion_xxhdpi.png"
   inkscape:export-xdpi="36.576"
   inkscape:export-ydpi="36.576">
  <defs
     id="defs4">
    <linearGradient
       inkscape:collect="always"
       id="linearGradient5887">
      <stop
         style="stop-color:#000000;stop-opacity:1;"
         offset="0"
         id="stop5889" />
      <stop
         style="stop-color:#000000;stop-opacity:0;"
         offset="1"
         id="stop5891" />
    </linearGradient>
    <radialGradient
       inkscape:collect="always"
       xlink:href="#linearGradient5887"
       id="radialGradient5927"
       cx="60.278435"
       cy="767.52655"
       fx="60.278435"
       fy="767.52655"
       r="22.896854"
       gradientTransform="matrix(1,0,0,1.9920447,0,-761.42063)"
       gradientUnits="userSpaceOnUse" />
    <radialGradient
       inkscape:collect="always"
       xlink:href="#linearGradient5887"
       id="radialGradient5929"
       cx="248.02002"
       cy="984.91962"
       fx="248.02002"
       fy="984.91962"
       r="105.62303"
       gradientTransform="matrix(1,0,0,0.46633733,0,525.61484)"
       gradientUnits="userSpaceOnUse" />
    <radialGradient
       inkscape:collect="always"
       xlink:href="#linearGradient5887"
       id="radialGradient5931"
       cx="192.49426"
       cy="965.28851"
       fx="192.49426"
       fy="965.28851"
       r="81.026993"
       gradientTransform="matrix(1,0,0,0.69024515,0,299.00281)"
       gradientUnits="userSpaceOnUse" />
    <radialGradient
       inkscape:collect="always"
       xlink:href="#linearGradient5887"
       id="radialGradient5933"
       cx="222.95236"
       cy="888.58459"
       fx="222.95236"
       fy="888.58459"
       r="105.97547"
       gradientTransform="matrix(1,0,0,0.24272419,0,672.90363)"
       gradientUnits="userSpaceOnUse" />
    <radialGradient
       inkscape:collect="always"
       xlink:href="#linearGradient5887"
       id="radialGradient5935"
       cx="134.07614"
       cy="910.53894"
       fx="134.07614"
       fy="910.53894"
       r="17.663673"
       gradientTransform="matrix(1,0,0,0.92417042,0,69.045784)"
       gradientUnits="userSpaceOnUse" />
    <radialGradient
       inkscape:collect="always"
       xlink:href="#linearGradient5887"
       id="radialGradient5937"
       cx="212.32205"
       cy="864.60559"
       fx="212.32205"
       fy="864.60559"
       r="48.305595"
       gradientTransform="matrix(1,0,0,0.28250591,0,620.34942)"
       gradientUnits="userSpaceOnUse" />
    <radialGradient
       inkscape:collect="always"
       xlink:href="#linearGradient5887"
       id="radialGradient5939"
       cx="236.66751"
       cy="839.45929"
       fx="236.66751"
       fy="839.45929"
       r="28.101843"
       gradientTransform="matrix(1,0,0,0.95678867,0,36.274152)"
       gradientUnits="userSpaceOnUse" />
    <radialGradient
       inkscape:collect="always"
       xlink:href="#linearGradient5887"
       id="radialGradient5941"
       cx="213.67894"
       cy="827.87103"
       fx="213.67894"
       fy="827.87103"
       r="19.465034"
       gradientTransform="matrix(1,0,0,1.0625451,0,-51.779316)"
       gradientUnits="userSpaceOnUse" />
    <radialGradient
       inkscape:collect="always"
       xlink:href="#linearGradient5887"
       id="radialGradient5943"
       cx="246.29543"
       cy="829.63037"
       fx="246.29543"
       fy="829.63037"
       r="61.247692"
       gradientTransform="matrix(1,0,0,0.67614751,0,268.67786)"
       gradientUnits="userSpaceOnUse" />
    <radialGradient
       inkscape:collect="always"
       xlink:href="#linearGradient5887"
       id="radialGradient5945"
       cx="161.38254"
       cy="842.53583"
       fx="161.38254"
       fy="842.53583"
       r="25.432335"
       gradientTransform="matrix(1,0,0,1.1386656,0,-116.8307)"
       gradientUnits="userSpaceOnUse" />
    <radialGradient
       inkscape:collect="always"
       xlink:href="#linearGradient5887"
       id="radialGradient5947"
       cx="174.61919"
       cy="789.58374"
       fx="174.61919"
       fy="789.58374"
       r="34.829769"
       gradientTransform="matrix(1,0,0,0.30220322,0,550.969)"
       gradientUnits="userSpaceOnUse" />
    <radialGradient
       inkscape:collect="always"
       xlink:href="#linearGradient5887"
       id="radialGradient5949"
       cx="180.0164"
       cy="766.2912"
       fx="180.0164"
       fy="766.2912"
       r="22.60133"
       gradientTransform="matrix(1,0,0,0.5483108,0,346.12544)"
       gradientUnits="userSpaceOnUse" />
    <radialGradient
       inkscape:collect="always"
       xlink:href="#linearGradient5887"
       id="radialGradient5951"
       cx="184.81422"
       cy="746.34906"
       fx="184.81422"
       fy="746.34906"
       r="54.862434"
       gradientTransform="matrix(1,0,0,0.53442813,0,347.47914)"
       gradientUnits="userSpaceOnUse" />
    <radialGradient
       inkscape:collect="always"
       xlink:href="#linearGradient5887"
       id="radialGradient5953"
       cx="137.46368"
       cy="764.54089"
       fx="137.46368"
       fy="764.54089"
       r="17.597942"
       gradientTransform="matrix(1,0,0,1.4321744,0,-330.41499)"
       gradientUnits="userSpaceOnUse" />
    <radialGradient
       inkscape:collect="always"
       xlink:href="#linearGradient5887"
       id="radialGradient5955"
       cx="63.780205"
       cy="897.30109"
       fx="63.780205"
       fy="897.30109"
       r="24.847988"
       gradientTransform="matrix(1,0,0,4.6406502,0,-3266.7594)"
       gradientUnits="userSpaceOnUse" />
    <radialGradient
       inkscape:collect="always"
       xlink:href="#linearGradient5887"
       id="radialGradient5957"
       cx="109.63498"
       cy="859.92822"
       fx="109.63498"
       fy="859.92822"
       r="20.721649"
       gradientTransform="matrix(1,0,0,1.2222275,0,-191.09968)"
       gradientUnits="userSpaceOnUse" />
    <radialGradient
       inkscape:collect="always"
       xlink:href="#linearGradient5887"
       id="radialGradient5959"
       cx="19.821045"
       cy="852.72736"
       fx="19.821045"
       fy="852.72736"
       r="15.597545"
       gradientTransform="matrix(1,0,0,1.6760649,0,-576.49906)"
       gradientUnits="userSpaceOnUse" />
  </defs>
  <sodipodi:namedview
     id="base"
     pagecolor="#ffffff"
     bordercolor="#666666"
     borderopacity="1.0"
     inkscape:pageopacity="0.0"
     inkscape:pageshadow="2"
     inkscape:zoom="0.98994949"
     inkscape:cx="-22.413252"
     inkscape:cy="145.77798"
     inkscape:document-units="px"
     inkscape:current-layer="layer1"
     showgrid="false"
     units="cm"
     inkscape:window-width="1366"
     inkscape:window-height="673"
     inkscape:window-x="0"
     inkscape:window-y="27"
     inkscape:window-maximized="1" />
  <metadata
     id="metadata7">
    <rdf:RDF>
      <cc:Work
         rdf:about="">
        <dc:format>image/svg+xml</dc:format>
        <dc:type
           rdf:resource="http://purl.org/dc/dcmitype/StillImage" />
        <dc:title></dc:title>
      </cc:Work>
    </rdf:RDF>
  </metadata>
  <g
     inkscape:label="Layer 1"
     inkscape:groupmode="layer"
     id="layer1"
     transform="translate(0,-698.03155)">
    <path
       style="fill:#008000;fill-opacity:1;stroke-width:4;stroke-miterlimit:4;stroke-dasharray:none;stroke:url(#radialGradient5959)"
       id="path3574"
       d="m 33.866658,828.41602 c -1.388832,1.70851 -3.865326,3.03141 -4.166494,5.12553 -0.215831,1.50075 1.928399,2.4882 2.892598,3.7323 0.108689,1.96628 0.643018,3.95064 0.326052,5.89884 -1.573631,9.67226 -3.581612,6.55871 -8.333352,16.08658 -0.854601,1.71358 -0.811819,3.68107 -1.217729,5.52159 11.974199,0.99169 6.06542,-0.84525 -1.769638,6.12499 -0.707881,0.62975 1.955759,-0.366 2.93364,-0.54901 0,0 -15.432452,6.05335 -15.432452,6.05335 l 0,0 c -0.5490912,0.14174 -1.1019527,0.5781 -1.647275,0.4252 -3.2452591,-0.90993 0.9691214,-5.29604 1.1436401,-5.62091 5.6397969,-7.11721 6.5581499,-6.27714 7.7487239,-14.31177 0.31535,-2.12815 0.813128,-4.3686 0.174809,-6.43822 -0.539691,-1.74982 -3.753669,-2.63553 -3.529764,-4.43948 1.248929,-10.0623 10.068833,-5.44768 0.808274,-8.79397 0,0 20.068967,-8.81502 20.068967,-8.81502 z"
       inkscape:connector-curvature="0" />
    <path
       style="fill:#008000;fill-opacity:1;stroke-width:4;stroke-miterlimit:4;stroke-dasharray:none;stroke:url(#radialGradient5957)"
       id="path3576"
       d="m 112.50766,839.48769 c -0.26758,0.47866 -7.15034,12.18682 -5.81007,12.52023 6.01808,1.49711 12.63991,-5.09311 18.43578,-3.01092 3.09484,1.11185 -3.29248,5.35012 -3.69053,8.30824 -0.57817,4.29682 2.9434,5.44843 5.92344,7.2921 -1.29644,1.58928 -3.02409,2.9597 -3.88933,4.76786 -0.23595,0.4931 0.63674,0.90932 0.95511,1.36399 -7.46883,4.14857 -14.58836,8.84698 -22.40649,12.44575 -0.94216,0.43369 1.22923,-1.71073 1.1334,-2.65353 -0.10944,-1.077 -2.71646,-0.76496 -4.471197,-0.75087 -1.938486,0.4353 -3.876986,0.87061 -5.815473,1.30592 0,0 22.75632,-13.65233 22.75632,-13.65233 l 0,0 c 1.58073,-0.28687 3.16148,-0.57375 4.74224,-0.86063 -9.91011,9.22785 -4.59369,3.22663 3.57371,0.7924 1.32347,-0.39445 -2.03787,1.71156 -3.16305,2.44839 -4.23723,2.77477 -8.60666,5.38476 -12.90998,8.07715 0.65813,-0.69464 2.97117,-1.89541 1.97443,-2.08389 -2.46339,-0.46583 -4.9751,0.69737 -7.46265,1.04605 5.59533,-6.1965 11.75245,-7.81952 1.36651,-10.5829 -3.24448,-0.86326 -8.057524,1.14995 -10.052441,-1.29298 -1.7752,-2.17386 2.495007,-5.0172 2.707733,-7.70113 0.127636,-1.61048 -0.8939,-3.15963 -1.733599,-4.58936 -0.586056,-0.99786 -1.644897,-1.70897 -2.467332,-2.56345 0,0 20.303469,-10.62609 20.303469,-10.62609 z"
       inkscape:connector-curvature="0" />
    <path
       style="fill:#008000;fill-opacity:1;stroke-width:4;stroke-miterlimit:4;stroke-dasharray:none;stroke:url(#radialGradient5955)"
       id="path3578"
       d="m 58.07167,783.2169 c 0.33191,1.34601 0.09835,2.91679 0.995729,4.03806 17.580719,21.96706 -7.209745,-21.62345 4.632323,16.45105 1.155656,3.71567 6.289188,5.59214 7.894605,9.17203 1.797567,4.00838 1.12835,8.58194 1.973767,12.83336 0.799206,4.01906 1.970717,7.97191 2.956069,11.95785 14.306817,13.31094 6.143658,1.63048 7.247124,18.51861 0.681845,10.43555 5.361649,2.39946 1.051864,12.95516 -0.934188,2.28803 -3.939477,3.98922 -3.896166,6.42434 0.02531,1.42463 2.700633,1.51728 4.050943,2.27592 0.840206,3.38453 -5.44113,6.08076 -4.616547,9.43214 0.348104,1.41482 4.599844,0.90211 4.135226,2.28997 -1.067405,3.18836 -5.123615,4.8474 -7.40539,7.47822 -5.748071,6.62733 -4.751994,4.84699 -5.200551,11.40878 0.958565,4.10882 1.904901,4.94849 -0.668575,9.18993 -1.40514,2.31588 -6.354647,3.88276 -5.284999,6.33747 0.973505,2.23408 6.686677,-2.05081 8.052254,0.0131 1.286451,1.94427 -3.697147,3.35487 -4.386092,5.52783 -0.322796,1.01812 1.172578,1.83901 1.758867,2.75852 -12.630295,14.86917 -2.503872,-0.45185 3.755671,6.12009 1.643187,1.72519 -2.996931,3.86465 -3.328291,6.11023 -0.212534,1.44031 1.254481,2.68142 1.830496,4.04004 2.632588,6.2093 0.37701,2.81815 4.924117,8.06467 -17.736345,14.24549 8.153446,1.60987 0.871943,13.87146 -1.430762,2.40929 -4.426722,3.93437 -5.672296,6.42436 -0.482785,0.96511 -0.210743,2.77115 0.927361,3.06109 2.803193,0.71414 5.812559,-0.40243 8.718832,-0.60365 -0.46284,4.23665 -7.785998,5.38854 -8.516038,9.35401 -0.18832,1.02298 7.613314,1.46641 7.420206,2.26779 -0.550488,2.28435 -3.372204,3.59195 -5.308433,5.16333 -3.083882,2.50275 -6.475553,4.68516 -9.713322,7.02776 22.965006,-3.67461 -5.344057,0.3111 5.154299,2.4353 0,0 -10.957035,4.9962 -10.957035,4.9962 l 0,0 c -6.811895,-0.8814 3.927917,-1.5304 -1.359734,-4.181 0.257825,-0.9548 0.157987,-2.0505 0.773476,-2.8645 1.492279,-1.9735 7.7849,-4.2416 5.386351,-5.2817 -3.658944,-1.58663 -9.474744,5.3884 -11.886438,2.463 -1.045821,-1.2685 14.983671,-7.98453 9.937514,-13.02247 -11.641875,-2.32381 -0.122164,1.44648 -1.53532,-5.92468 -1.802967,-9.40416 -23.174782,15.68797 4.065389,-9.83741 -0.03707,-2.65315 -6.105571,0.43562 -8.896469,-0.4736 -1.558575,-0.50775 -2.094187,-2.29868 -3.141281,-3.44802 -1.130019,-13.97357 -0.549005,8.60569 7.720904,-14.12104 1.706529,-4.68973 -8.897376,-2.26715 -8.08555,-5.89689 0.689805,-3.08418 5.180598,-4.44992 6.725313,-7.27626 0.577759,-1.05712 -0.577825,-2.29538 -0.866738,-3.44308 -8.814695,-1.06817 -6.755055,0.97427 -3.452307,-5.64236 0.720549,-1.44352 2.364111,-2.94201 1.833351,-4.44973 -0.478542,-1.35938 -2.836391,-1.32122 -4.14972,-2.13032 -6.504868,-4.0074 -4.020776,-2.43802 1.269496,-9.59156 9.08762,-19.73948 -4.262148,8.82931 6.157542,-11.9778 0.880741,-1.75876 1.325742,-3.68464 2.308522,-5.39974 1.17716,-2.05432 2.879541,-3.83856 4.139631,-5.85325 0.972095,-1.5542 4.316145,-4.01778 2.54431,-4.83323 -3.232885,-1.48786 -7.234498,0.67326 -10.851745,1.00991 2.161148,-2.03046 11.503329,-10.02877 12.393754,-13.60264 0.40972,-1.64449 -1.970183,-2.9882 -2.185782,-4.66188 -0.333986,-2.59274 1.521106,-5.34201 0.578861,-7.81246 -7.840541,-20.55688 -8.592111,11.26533 -4.458925,-19.76676 -5.663498,-1.68099 -12.385793,-1.65202 -16.990488,-5.04299 -18.133889,-13.35408 15.161853,-24.98095 3.237299,-39.32689 -1.932237,-2.32459 -6.351058,-1.59335 -9.030158,-3.22317 -1.194001,-0.72636 -1.300253,-2.30452 -1.95038,-3.45679 0,0 16.371361,-8.32566 16.371361,-8.32566 z"
       inkscape:connector-curvature="0" />
    <path
       style="fill:#008000;fill-opacity:1;stroke-width:4;stroke-miterlimit:4;stroke-dasharray:none;stroke:url(#radialGradient5953)"
       id="path3580"
       d="m 143.84691,746.13968 c -9.78007,15.1934 1.49376,-5.78243 8.85172,4.49799 2.18211,3.04879 -6.15406,5.55934 -6.51652,9.16335 -0.19692,1.95789 4.48977,1.74572 5.23328,3.59594 0.52964,1.31801 -2.51927,9.3805 -3.0618,10.92347 0.0792,0.80031 -0.46639,1.90099 0.23778,2.40095 0.79878,0.56713 3.89977,-0.5776 3.06054,-0.0591 -19.08143,11.78762 -19.17362,14.49932 -16.80826,6.50675 0,0 12.56499,-7.49183 12.56499,-7.49183 l 0,0 c 4.47107,3.79162 1.48987,0.94797 -13.16883,8.2441 -1.63261,0.8126 -3.40838,1.84585 -5.27096,1.70763 -0.78755,-0.0584 -0.11628,-1.40783 -0.17446,-2.11174 2.98931,-2.7193 7.15151,-4.70955 8.96793,-8.15789 1.91754,-3.64033 -8.68909,-6.63578 -8.98764,-6.96997 -1.27562,-1.4279 0.27539,-3.94414 -0.93585,-5.4161 -5.38518,-6.54433 -9.70808,3.38116 -1.0369,-8.16527 0,0 17.04498,-8.66823 17.04498,-8.66823 z"
       inkscape:connector-curvature="0" />
    <path
       style="fill:#008000;fill-opacity:1;stroke-width:4;stroke-miterlimit:4;stroke-dasharray:none;stroke:url(#radialGradient5951)"
       id="path3582"
       d="m 149.87352,727.94931 c 8.47845,-0.0913 -0.12189,4.53895 2.71017,6.69636 1.20756,0.91992 3.1867,0.26884 4.76046,0.0852 6.17159,-0.72002 10.48868,-2.70413 16.36843,-4.76922 -0.30872,1.06935 -2.15164,3.06161 -0.92613,3.20803 2.6523,0.31693 4.89526,-2.18308 7.55849,-2.41553 0.74721,-0.0652 0.86715,1.09483 1.30071,1.64226 1.17909,-0.0353 2.41687,0.22413 3.53727,-0.10593 2.62436,-0.773 4.96807,-2.16677 7.50447,-3.14639 1.46502,-0.56583 2.99331,-0.99078 4.48997,-1.48616 2.41477,-1.23098 4.82954,-2.46196 7.24432,-3.69294 -0.90285,0.98056 -4.11253,3.13968 -2.70852,2.94168 2.5346,-0.35745 4.28172,-2.56977 6.62951,-3.49465 0.28601,-0.11266 -0.17372,0.8177 0.13865,0.82841 1.07156,0.0368 5.95165,-2.68197 6.21571,-2.81702 1.51372,-0.6699 5.23984,-3.38346 4.54119,-2.00968 -17.53807,14.53244 -2.5788,0.77479 -1.39781,3.59845 0.61939,1.48096 -4.30129,1.59671 -3.97,3.14967 0.28455,1.33386 2.94268,-0.89822 4.46176,-0.84444 0.61912,0.0219 0.95791,0.70215 1.43686,1.05323 2.54218,1.00539 7.23346,0.59926 4.7549,4.48416 -1.15492,1.81022 -3.56341,2.9278 -4.36808,4.88342 -0.27293,0.66333 1.01241,1.56124 1.78277,1.39987 4.01923,-0.84195 7.64571,-2.78382 11.46855,-4.17573 -1.02946,1.23794 -2.09563,2.45218 -3.08839,3.71382 -0.71168,0.90442 -2.36242,1.71833 -2.02242,2.78127 0.52181,1.63139 5.71522,-1.37454 5.68745,0.32194 -0.0185,1.12407 -1.81718,1.56089 -2.80312,2.25974 -1.32624,0.94005 -2.7487,1.76641 -4.12304,2.64963 -0.14981,0.5669 -0.60691,1.13545 -0.44942,1.70069 0.18528,0.66502 1.80583,1.07357 1.38143,1.64448 -1.04104,1.40041 -11.95389,8.69904 -12.43529,10.55147 -0.3416,1.31446 2.89569,0.77108 4.34356,1.15661 -0.71453,1.18605 -1.42904,2.37209 -2.14357,3.55814 -0.28069,2.71212 0.20804,1.49436 -1.37593,3.6812 0,0 -12.88318,6.15363 -12.88318,6.15363 l 0,0 c -4.43704,0.53268 -3.7131,1.43689 -2.86581,-2.13762 0.93015,-1.34951 1.59416,-2.87819 2.79044,-4.04854 2.50397,-2.4497 7.1394,-3.54596 8.21695,-6.72029 0.57781,-1.7021 -11.51384,0.0929 -9.80842,-1.95317 6.74748,-8.09497 15.41793,-5.07285 7.8913,-7.13089 0.88823,-0.66825 1.74523,-1.3711 2.66469,-2.00476 0.83967,-0.57869 3.66506,-1.55852 2.6074,-1.62862 -1.44656,-0.0959 -2.78376,2.24642 -3.99714,1.53651 -1.06155,-0.62106 4.20989,-2.28784 2.95043,-2.14889 -2.53555,0.27973 -6.96063,4.88437 -7.08771,2.60533 -0.1548,-2.77631 4.61392,-3.73172 6.92088,-5.59757 -1.65215,0.17118 -3.29323,0.5168 -4.95644,0.51354 -1.17047,-0.002 -3.01889,0.43798 -3.46089,-0.53004 -0.53123,-1.16337 2.88969,-2.91401 1.63161,-3.4761 -2.0963,-0.93659 -5.10569,2.43806 -6.92051,1.11313 -2.30677,-1.68408 6.05996,-4.78837 4.14549,-7.07247 -2.75425,0.7567 -5.5085,1.51339 -8.26274,2.27008 1.60428,-1.3218 6.98051,-3.7375 4.81284,-3.96539 -3.17652,-0.33399 -10.97188,5.59242 -8.73176,3.55335 3.44477,-3.13562 8.4104,-4.56152 12.50831,-6.99096 0.39947,-0.23683 1.34102,-1.2027 0.93305,-0.97774 -2.49922,1.37807 -4.83759,2.97629 -7.2564,4.46443 -1.05178,0.329 -2.06014,0.65899 -3.13759,0.9275 -0.65015,0.16203 -1.35546,0.1761 -1.96602,0.43314 -1.85017,0.77889 -3.58813,1.75499 -5.36837,2.65454 -7.33652,3.70716 -3.84942,2.87512 -9.15572,3.68311 -1.13825,0.18127 -2.32909,0.18857 -3.41473,0.54378 -2.65419,0.8684 -5.06879,3.94265 -7.73504,3.10424 -1.88865,-0.59389 3.93058,-2.83908 3.24002,-4.51772 -0.56165,-1.36529 -3.27177,0.23052 -4.83107,0.65013 -11.05012,2.97357 -4.95047,3.63789 -11.70529,2.27735 -10.59091,-0.56648 0.32311,1.25751 -3.60338,-3.58034 -2.3086,-2.84442 -8.81905,1.85874 -13.72529,2.25991 -0.87805,0.0718 -0.89694,-1.35607 -1.3454,-2.03411 -1.48637,0.18593 -2.97276,0.37185 -4.45914,0.55778 0,0 18.85972,-11.81838 18.85972,-11.81838 z"
       inkscape:connector-curvature="0" />
    <path
       style="fill:#008000;fill-opacity:1;stroke-width:4;stroke-miterlimit:4;stroke-dasharray:none;stroke:url(#radialGradient5949)"
       id="path3584"
       d="m 173.03077,762.35015 c 2.34488,-0.78395 4.53801,-2.18299 7.03465,-2.35187 6.57258,-0.44461 -4.61856,4.33068 3.12361,2.98821 2.52793,-0.43834 4.66333,-1.96688 7.08084,-2.75921 0.45575,-0.14937 1.09899,-0.3327 1.45577,-0.0386 0.25167,0.20743 -0.39686,0.49857 -0.59529,0.74786 -3.47177,1.87783 -6.8423,3.91381 -10.41529,5.63352 -0.42812,0.20606 -0.99356,-0.0535 -1.45624,0.0804 -3.08344,0.89219 -4.27536,1.48673 -6.74546,2.59669 0,0 29.12536,-13.53481 29.12536,-13.53481 l 0,0 c -2.88031,1.6169 -6.36866,2.58937 -8.64095,4.85069 -1.00607,1.00122 2.95869,-0.84908 4.45349,-0.68344 0.51218,0.0567 -0.65584,0.71196 -0.98375,1.06793 -5.38868,2.58821 -10.77737,5.17643 -16.16606,7.76466 -4.96094,1.03938 -12.65285,8.59523 -18.31424,7.92244 -0.85776,-0.1019 -0.91341,-1.44974 -0.77544,-2.21271 0.24297,-1.34372 2.82227,-2.6852 1.85073,-3.73384 -0.99206,-1.07077 -3.05695,0.52145 -4.58542,0.78218 0,0 14.55369,-9.12002 14.55369,-9.12002 z"
       inkscape:connector-curvature="0" />
    <path
       style="fill:#008000;fill-opacity:1;stroke-width:4;stroke-miterlimit:4;stroke-dasharray:none;stroke:url(#radialGradient5947)"
       id="path3586"
       d="m 158.86414,783.47554 c 4.2773,1.45123 9.28765,-3.27268 13.34288,-1.56034 7.45163,3.14647 -9.01372,6.98629 4.66384,6.0957 15.91879,-1.03649 5.33214,-4.26774 13.63105,-1.1534 11.5877,-2.0998 0.0632,0.41076 11.92491,-3.58237 0.24001,-0.0808 -0.14516,0.49343 -0.37094,0.60215 -16.50079,7.94519 -21.10426,12.16243 -16.61294,7.06583 1.33371,-1.03666 2.66741,-2.07332 4.00113,-3.10999 0,0 13.51574,-6.78241 13.51574,-6.78241 l 0,0 c 0.42829,0.0369 0.85659,0.0739 1.28489,0.11082 -1.35503,1.06919 -5.59164,2.34217 -4.06509,3.20755 2.01129,1.14017 8.73697,-2.96612 6.92193,-1.58804 -6.31526,4.79487 -13.88102,8.09421 -20.82153,12.14132 0.22278,-0.43202 1.19657,-1.23584 0.66831,-1.29609 -2.77997,-0.31707 -5.37966,2.5355 -8.34034,0.94828 -0.76491,-0.69236 -1.23481,-1.85358 -2.2947,-2.0771 -2.17462,-0.45857 -4.47041,0.0521 -6.7002,0.18029 -2.71101,0.15588 -5.58051,1.54483 -8.11513,0.67161 -1.39289,-0.47988 0.3283,-3.70901 -1.15436,-3.86513 -5.23234,-0.55091 -10.00445,4.15626 -15.48204,2.8423 0,0 14.00259,-8.85102 14.00259,-8.85102 z"
       inkscape:connector-curvature="0" />
    <path
       style="fill:#008000;fill-opacity:1;stroke-width:4;stroke-miterlimit:4;stroke-dasharray:none;stroke:url(#radialGradient5945)"
       id="path3588"
       d="m 154.89886,816.16406 c 4.87405,6.50898 -1.55075,-0.91543 9.07436,5.47793 2.20706,1.32804 3.77905,3.34765 5.69166,5.00034 2.09478,1.8101 5.73952,2.83846 6.33009,5.38773 5.78754,24.98225 -10.67248,-1.26247 1.10118,15.40384 2.53542,0.82398 6.8087,0.16983 7.60625,2.47192 0.86437,2.4949 -2.94296,4.51364 -4.40201,6.77688 -4.32872,6.71451 -3.60581,7.42673 -16.10934,11.38131 -1.46963,0.4648 -3.70686,-0.48094 -4.22349,-1.79475 -0.80726,-2.05288 0.64919,-4.31284 0.97379,-6.46926 0,0 15.01036,-7.52598 15.01036,-7.52598 l 0,0 c 0.30401,1.67511 -0.24806,3.68145 0.91207,5.02535 0.63444,0.73494 3.92853,-0.93706 3.08575,-0.39424 -6.89274,4.43941 -13.9682,8.71859 -21.49115,12.24863 -1.07404,0.50397 -4.20553,0.46474 -3.60073,-0.47466 14.59294,-22.66635 6.73323,2.1934 11.3967,-15.7852 -1.958,-1.45595 -3.49026,-3.56461 -5.87401,-4.36785 -3.92821,-1.32367 -9.27555,0.67062 -12.43298,-1.801 -2.32775,-1.82216 -0.0349,-5.54433 -0.45016,-8.28388 -0.35543,-2.34466 -0.0722,-5.15026 -1.85208,-6.90273 -1.74041,-1.71363 -5.83909,-0.32177 -7.3765,-2.18385 -1.12952,-1.36804 1.0092,-3.27792 1.5138,-4.91687 0,0 15.11644,-8.27366 15.11644,-8.27366 z"
       inkscape:connector-curvature="0" />
    <path
       style="fill:#008000;fill-opacity:1;stroke-width:4;stroke-miterlimit:4;stroke-dasharray:none;stroke:url(#radialGradient5943)"
       id="path3590"
       d="m 200.71448,804.93871 c 19.89405,-5.79065 -6.64174,1.44393 10.86848,-1.94004 3.29535,-0.63685 6.33956,-2.95864 9.68708,-2.59938 1.43888,0.15442 -0.28598,4.13731 1.0993,3.75699 30.47322,-8.36611 12.03289,-12.42829 25.77473,-8.62007 2.05443,-0.10373 4.10884,-0.20742 6.16327,-0.31114 1.99586,-0.2742 3.97505,-0.67472 5.98759,-0.82259 1.36117,-0.10007 2.79845,0.46161 4.09629,0.0817 3.55808,-1.04152 6.5311,-3.47399 10.17105,-4.25802 0.73172,-0.1576 0.37622,1.31244 0.71306,1.91364 0.28667,0.51163 0.75673,0.92328 1.1351,1.38492 0.50044,0.30908 0.90142,0.83652 1.50132,0.92725 3.3365,0.50465 6.0628,-1.69694 9.05159,-2.38506 0.2804,-0.0645 0.53221,0.50868 0.3504,0.70999 -0.93147,1.03135 -2.20811,1.77145 -3.35281,2.61438 -0.46693,0.34384 0.87835,-0.74375 1.31751,-1.11563 0.40199,-0.27383 1.47911,-1.20147 1.20597,-0.8215 -4.2566,5.92146 -5.60967,2.1269 6.42525,-0.66089 1.04216,-0.24141 3.3726,-0.11583 3.09866,0.81411 -0.66342,2.25211 -3.58497,3.42804 -4.93515,5.42025 -0.86031,1.26943 -1.0642,2.81141 -1.59632,4.21711 28.31633,-5.65933 4.10065,-3.14906 5.15111,5.1236 0.30418,2.39553 8.66841,-2.54164 8.09519,-0.18574 -0.98256,4.03829 -11.51906,4.55171 -10.11563,8.48955 3.98799,11.18976 21.43841,-13.53183 7.95597,3.45904 0.16997,1.11598 0.87427,2.26973 0.50989,3.34794 -4.13108,12.22416 -2.83408,-3.16893 -9.41791,10.82211 -0.42147,0.89568 2.70525,1.00049 2.4341,1.94139 -4.9716,5.26565 -3.93734,2.60151 -4.82287,7.28035 2.2045,3.07452 -15.04188,6.86361 -10.65244,8.52688 3.84892,1.45845 7.92278,-3.45115 12.07659,-3.02629 2.25737,0.23088 -4.0389,2.08748 -5.40572,3.7086 -0.38184,0.45289 1.1936,0.38625 1.79041,0.57936 -2.66872,1.34922 -5.33743,2.69844 -8.00615,4.04765 1.84505,-0.47696 7.17253,-2.32779 5.53517,-1.43088 -9.07849,4.43928 -18.15698,8.87857 -27.23546,13.31785 1.42131,-1.57254 5.40315,-2.97145 4.26392,-4.7176 -1.08472,-1.66261 -4.07005,1.26369 -6.10509,1.89554 0,0 16.68043,-10.42347 16.68043,-10.42347 l 0,0 c 1.32343,-0.19418 2.69551,-0.21034 3.9703,-0.58254 1.66007,-0.48471 6.246,-2.77784 4.75525,-1.96512 -20.10352,10.96002 -31.59361,15.09288 -20.53567,11.00473 1.99738,-1.60413 1.62916,-1.00403 2.77173,-2.97664 0.36842,-0.63606 0.42933,-1.46961 1.03422,-1.93968 2.3332,-1.81316 5.2336,-2.97671 7.59189,-4.7638 1.22236,-0.92628 2.95351,-1.8825 3.06372,-3.31089 0.0679,-0.87912 -1.81961,-0.68179 -2.72941,-1.02267 7.67954,-6.13216 4.82516,-2.55475 8.05261,-8.44359 0.69103,-1.26084 3.01289,-2.59675 2.12911,-3.75759 -1.04954,-1.37856 -6.20054,0.83598 -5.54063,-0.72342 3.87267,-9.1513 16.78116,-6.77203 2.11639,-7.78031 -5.61579,-7.7347 1.48692,3.87491 10.60404,-11.60604 1.08845,-1.8482 -4.72006,0.29541 -7.01315,-0.11241 -0.10889,-0.0194 -7.23135,-3.50378 -7.1404,-3.77303 0.99926,-2.95828 4.40824,-4.76341 6.61235,-7.14512 -1.36058,-0.4131 -2.67632,-0.97153 -4.08175,-1.23933 -1.46383,-0.27894 -4.15326,0.91673 -4.46905,-0.39004 -0.38494,-1.59294 4.89123,-2.77899 3.45921,-3.78884 -1.77958,-1.25494 -9.47962,5.91194 -2.84607,0.48813 -0.49475,0.10141 -1.02508,0.11094 -1.48426,0.30418 -2.3858,1.00408 -4.53526,2.46488 -7.01302,3.27198 -0.32994,0.10753 -0.72481,-0.56224 -0.52118,-0.81781 1.12415,-1.41084 4.02218,-1.95014 4.10514,-3.6802 0.0707,-1.47469 -4.64927,2.66627 -4.95733,-0.0637 -7.85169,-1.71154 -7.67692,2.26182 -16.42543,4.54487 -0.84033,0.2193 -2.56983,-0.59211 -2.18904,-1.2962 5.41296,-10.00871 20.27185,-14.05135 -9.5663,-0.63009 -4.15973,1.3749 -8.31946,2.74981 -12.47918,4.12471 -1.59738,-0.42464 -3.1382,-1.45729 -4.79212,-1.27392 -0.99901,0.1107 -18.64911,5.34855 -20.2347,5.27835 -1.03265,-0.0457 0.23409,-2.91918 -0.76588,-2.68455 -4.22224,0.99068 -7.67885,3.71121 -11.51825,5.56681 0,0 14.54298,-9.87824 14.54298,-9.87824 z"
       inkscape:connector-curvature="0" />
    <path
       style="fill:#008000;fill-opacity:1;stroke-width:4;stroke-miterlimit:4;stroke-dasharray:none;stroke:url(#radialGradient5941)"
       id="path3596"
       d="m 221.12365,808.97125 c -7.97005,7.45877 -8.1397,3.78915 -6.29289,10.04213 0.36632,1.24035 -0.0566,2.98913 1.12829,3.71406 1.90557,1.16585 5.19611,-0.33296 6.81016,1.14275 9.82579,8.98369 -13.66248,1.21462 4.87774,5.99199 -2.41831,5.89049 -3.31004,4.31174 4.60534,3.34993 0,0 -26.78534,13.34138 -26.78534,13.34138 l 0,0 c -5.81905,-1.9564 -3.81866,-0.28041 2.37078,-7.03748 -3.54969,-5.61212 -0.63748,-3.16517 -11.57204,-2.81984 -0.6302,-0.98132 9.62479,-10.58823 8.78322,-12.80253 -0.64275,-1.69119 -4.73109,0.71636 -5.9472,-0.70135 -0.98692,-1.15052 1.27812,-2.66451 1.91718,-3.99677 0,0 20.10476,-10.22427 20.10476,-10.22427 z"
       inkscape:connector-curvature="0" />
    <path
       style="fill:#008000;fill-opacity:1;stroke-width:4;stroke-miterlimit:4;stroke-dasharray:none;stroke:url(#radialGradient5939)"
       id="path3598"
       d="m 250.59608,814.57173 c -3.5128,9.58534 -1.27523,-1.04731 8.14408,4.40699 1.77841,1.02979 -0.21772,3.87321 0.47129,5.66339 0.66491,1.72755 4.51611,2.97044 3.45223,4.53064 -3.54769,5.20276 -11.79092,7.04916 -15.01033,12.41953 -1.07446,1.79237 4.38165,1.10394 6.57247,1.65591 -0.72701,1.0021 -4.85905,6.96045 -6.4114,8.30468 -3.26424,2.82658 -16.14176,8.56907 -16.6623,8.80599 -4.20588,1.91428 -3.13745,1.8809 -5.98825,1.1243 -0.69551,0.0832 -1.41755,0.0605 -2.08651,0.24967 -2.10505,0.59555 -6.02201,3.37164 -4.2126,2.37897 4.03085,-2.21136 7.96027,-4.56691 11.94041,-6.85037 0,0 -14.99902,5.39143 -14.99902,5.39143 l 0,0 c 10.72968,-6.41724 20.99364,-13.50407 32.18906,-19.25171 3.82865,-1.96559 -6.87034,4.98788 -9.93579,7.82705 -0.82249,0.76177 4.34283,-1.31111 3.53252,-0.35339 -1.71885,1.51748 -7.57206,4.62498 -5.15658,4.55245 3.26088,-0.0979 11.14496,-6.05916 8.29117,-4.64657 -6.22831,3.08295 -12.46097,6.18151 -18.42163,9.66103 -6.76184,3.94722 10.94723,-4.09345 13.69796,-7.7616 0.6828,-0.91053 0.074,-2.1908 0.11108,-3.2862 -3.85336,-6.93749 -0.48794,0.29781 -2.21945,-8.63025 -0.33798,-1.74274 -1.54184,-3.31997 -1.70601,-5.08256 -0.18852,-2.02417 1.17209,-4.0836 0.66785,-6.06421 -0.42155,-1.65589 -4.37212,-4.31313 -5.85108,-5.40839 0,0 19.59087,-9.63678 19.59087,-9.63678 z"
       inkscape:connector-curvature="0" />
    <path
       style="fill:#008000;fill-opacity:1;stroke-width:4;stroke-miterlimit:4;stroke-dasharray:none;stroke:url(#radialGradient5937)"
       id="path3600"
       d="m 187.38978,861.61702 c 2.99771,0.15675 5.43506,2.38574 8.38308,2.59179 3.32569,0.23246 6.65428,-0.79061 9.98413,-0.61169 2.55177,0.1371 4.93311,1.82843 7.47036,1.54954 19.07684,-2.09678 12.92164,-9.2245 18.37107,-0.21209 3.64752,-1.05437 7.29505,-2.10875 10.94258,-3.16312 -0.0334,0.86658 -1.00627,2.91088 -0.10014,2.59971 3.8682,-1.32831 14.22948,-7.47349 10.36954,-6.12615 -6.51067,2.27258 -12.20577,6.09432 -18.42818,8.93906 -0.63157,0.28875 1.01297,-0.8996 1.60552,-1.24813 1.39934,-0.82309 2.89835,-1.50229 4.34754,-2.25344 6.42056,-4.07017 0.84308,-0.18295 -1.20293,-0.53808 -0.69604,-0.12084 0.33133,-1.23155 0.497,-1.84733 -2.55671,0.91903 -5.11341,1.83805 -7.67011,2.75707 0,0 15.7923,-10.15965 15.7923,-10.15965 l 0,0 c 1.69078,-0.28051 3.39331,-1.17361 5.07232,-0.84151 0.8181,0.1618 -0.65783,4.8347 2.8486,4.04631 -0.46908,0.61016 -1.17923,1.1189 -1.40723,1.83048 -0.11656,0.36385 0.32294,0.69978 0.48441,1.04966 -6.91567,3.85198 -13.83135,7.70395 -20.74703,11.55594 -0.59896,0.29011 0.90346,-1.25457 0.52964,-1.76337 -2.77481,-3.77658 -19.47535,4.90872 -14.80147,2.97868 -33.8859,7.13608 2.81694,1.16333 -19.8484,1.07821 -4.11552,-0.0155 -8.1242,1.65551 -12.23503,1.47958 -2.07618,-0.0888 -3.63241,-2.11218 -5.70544,-2.24739 -20.1837,-1.31639 -2.96323,3.1763 -13.09415,0.23275 0,0 18.54201,-11.67683 18.54201,-11.67683 z"
       inkscape:connector-curvature="0" />
    <path
       style="fill:#008000;fill-opacity:1;stroke-width:4;stroke-miterlimit:4;stroke-dasharray:none;stroke:url(#radialGradient5935)"
       id="path3602"
       d="m 133.44241,897.25385 c 0.3919,3.04439 4.61853,3.64779 5.76903,6.10428 0.75022,1.60186 -0.4136,3.56306 0.21722,5.20547 0.16759,0.43638 4.76966,5.05273 5.60519,5.54602 0.87902,0.51898 1.9846,0.6332 2.97692,0.94979 -0.73473,0.73758 -1.46945,1.47517 -2.20417,2.21274 0,0 -19.10575,7.591 -19.10575,7.591 l 0,0 c 3.45121,-1.52628 6.9024,-3.05256 10.35359,-4.57883 -3.86044,1.14893 -8.9106,6.18877 -11.58135,3.44678 -2.47806,-2.54418 6.92747,-4.07739 7.76427,-7.3657 0.43039,-1.69129 -3.79801,-0.98629 -5.38429,-1.98674 -1.4362,-0.9058 -2.00631,-2.65966 -3.43468,-3.57529 -7.39505,-4.74047 -8.52227,1.21468 -0.29989,-8.92282 0,0 9.32391,-4.6267 9.32391,-4.6267 z"
       inkscape:connector-curvature="0" />
    <path
       style="fill:#008000;fill-opacity:1;stroke-width:4;stroke-miterlimit:4;stroke-dasharray:none;stroke:url(#radialGradient5933)"
       id="path3604"
       d="m 136.39283,883.38563 c 8.16248,3.21772 -5.9012,-1.69104 13.19348,-1.78603 1.48772,-0.007 2.07374,1.90894 3.18287,2.79457 1.3317,1.06336 2.36384,2.82516 4.13279,3.04695 6.21791,0.77957 21.73011,-3.73107 26.28128,-4.83915 2.02789,0.69453 3.91449,1.98705 6.08365,2.08358 3.52586,0.15691 6.9746,-0.99514 10.48287,-1.34632 11.28704,-1.12987 7.3505,0.4378 19.67124,-2.93353 4.54618,-1.24398 8.73333,-5.03589 13.41974,-4.31854 2.33712,0.35775 -1.49559,4.01955 -2.24338,6.02931 4.18353,-1.20902 8.36704,-2.41805 12.55057,-3.62709 2.34625,0.0734 4.72856,0.59376 7.03875,0.22045 4.50277,-0.7276 8.60067,-3.1539 13.16153,-3.48464 1.97593,-0.14329 3.46325,2.14848 5.44562,2.13531 8.35884,-0.0556 20.50316,-5.37407 27.39492,-7.86165 0.15948,0.95915 -0.57986,2.66123 0.47846,2.87743 1.61409,0.32971 5.98813,-2.52568 4.51057,-1.85828 -4.96078,2.24073 -9.91535,4.49749 -14.96224,6.57918 -1.58145,0.65231 6.18669,-2.83311 4.55567,-2.28677 -7.32522,2.45374 -11.68808,6.3192 -2.54737,-0.48161 3.88785,-1.82299 7.77571,-3.64598 11.66357,-5.46899 0.31307,0.64061 0.17438,2.06978 0.93922,1.92181 4.11059,-0.79533 7.62582,-3.22684 11.63756,-4.35516 1.84036,-0.51761 4.33026,-1.69728 5.75703,-0.53716 8.0525,6.54762 -16.5721,4.00425 5.9323,4.45004 -5.25173,5.1892 -12.13686,6.44445 -6.77382,11.13716 0.93122,0.81483 2.77259,0.8487 3.26103,1.92823 0.49167,1.08669 -0.78003,2.26537 -0.83375,3.43646 -0.038,0.82847 1.20078,1.83222 0.56438,2.4359 -2.46301,2.33632 -5.92137,3.63598 -8.88204,5.45397 -7.39048,5.88518 -4.36997,3.74706 -20.1622,11.73414 -1.29023,0.65256 -2.7298,1.06498 -4.16743,1.38913 -1.14984,0.25924 -2.8983,1.24064 -3.53636,0.34781 -2.50033,-3.4987 9.87543,-5.11521 -3.88306,-1.81868 -13.53056,6.20726 -14.0638,8.9373 -9.21786,1.15659 0,0 20.36773,-13.66535 20.36773,-13.66535 l 0,0 c 5.01437,-0.032 3.36723,-1.02192 5.67175,1.62361 1.5737,-0.24379 3.12656,-0.6494 4.72114,-0.73134 0.82934,-0.0426 2.13545,-0.32101 2.45889,0.36241 0.3634,0.76784 -2.15036,2.15929 -1.22255,2.24989 1.55416,0.15176 5.46064,-2.71551 4.1424,-1.96477 -8.38801,4.77694 -20.92892,10.96906 -5.64707,3.31494 2.71951,-6.57393 -2.63374,5.39905 6.4315,-6.7947 0.58705,-0.78966 0.91133,-2.30927 0.0346,-2.8435 -1.54539,-0.94172 -4.96946,1.04348 -5.58029,-0.53587 -4.94024,-12.77344 9.9556,0.39316 1.05511,-6.68305 -1.69465,-0.088 -3.3893,-0.17606 -5.08396,-0.26408 -0.68299,-0.60705 -1.09767,-1.68439 -2.04898,-1.82115 -1.95833,-0.28154 -4.09815,1.41492 -5.902,0.67809 -1.03335,-0.4221 1.24154,-2.92916 0.11245,-3.04301 -8.21425,-0.82829 -29.77789,17.68638 9.91152,-10.55067 8.83856,-1.7268 -3.11402,-0.0788 1.51063,2.11878 7.08392,3.36631 50.06702,-18.55754 -18.30013,14.16509 -2.08055,0.99583 7.02914,-4.76326 4.66869,-4.7556 -4.36291,0.0142 -7.96338,3.18614 -11.94506,4.7792 -17.71375,-1.46688 9.90602,0.11864 -20.17605,2.9467 -2.15395,0.20249 -4.08093,-1.71301 -6.2435,-1.60679 -4.00318,0.1966 -7.82256,1.57973 -11.70066,2.48809 -35.03527,8.20619 9.04775,-1.51345 -22.69613,5.39021 0.14529,-1.62389 2.22913,-4.57409 0.43587,-4.8717 -3.92753,-0.6518 -7.52409,2.62241 -11.4918,3.03688 -1.86609,0.19492 -3.5808,-1.38287 -5.4551,-1.26665 -4.35494,0.27002 -17.62009,4.39691 -22.27092,3.93985 -1.88658,-0.1854 -2.9794,-2.10079 -4.4691,-3.15118 -4.95324,1.15194 -9.90713,2.30169 -14.85973,3.45581 -4.89101,1.13977 -9.63127,3.77232 -14.6711,3.42587 -1.80567,-0.12413 -0.065,-4.30186 -1.85239,-4.56177 -3.66026,-0.53224 -16.3795,4.80012 -20.81876,4.44375 -0.98338,-0.0789 -0.29297,-1.74421 -0.43947,-2.6163 0,0 17.22286,-10.84611 17.22286,-10.84611 z"
       inkscape:connector-curvature="0" />
    <path
       style="fill:#008000;fill-opacity:1;stroke-width:4;stroke-miterlimit:4;stroke-dasharray:none;stroke:url(#radialGradient5931)"
       id="path3606"
       d="m 195.97378,912.99834 c 3.74295,-0.48687 15.95748,-2.40238 19.22947,-1.29416 2.48725,0.84243 3.37739,3.67146 5.06609,5.50718 2.09005,1.97803 3.40827,5.00484 6.27017,5.93408 8.4838,2.75465 23.55941,-0.61011 31.36901,-1.75886 4.45274,8.27985 -0.19388,3.33964 13.29178,0.0755 1.39131,-0.33675 -2.13491,1.75605 -3.36844,2.42221 -2.45368,1.12407 -4.90736,2.24812 -7.36106,3.37219 -1.72578,0.43445 -3.57977,0.57631 -5.17739,1.30335 -4.23941,1.92925 -8.13799,4.40526 -12.20697,6.60789 3.71455,-1.83079 11.83453,-9.23114 11.14366,-5.49241 -0.75203,4.06962 -7.97312,4.25985 -11.42265,7.00218 -2.07919,1.65293 -3.45879,3.90791 -4.94507,6.00993 -9.89251,13.99085 -2.46566,0.75822 1.24453,9.8715 0.77651,1.90732 -0.95663,3.96807 -1.43494,5.95211 -9.77868,8.61625 -10.73732,5.30182 -10.63434,13.23454 0.0123,0.9807 1.0625,2.22599 0.29822,2.93021 -2.94327,2.71196 -7.25246,3.9527 -10.45029,6.42404 -0.51498,0.39798 -0.89154,1.79954 -0.21077,1.815 2.73339,0.0621 5.33004,-1.09225 7.99505,-1.63837 -1.69378,1.11422 -3.38754,2.22844 -5.0813,3.34265 0.19737,0.4799 0.99279,1.07456 0.59213,1.43968 -5.2357,4.77119 -8.79848,3.76156 -10.78537,9.54245 -0.31872,0.92729 -0.92421,2.52061 0.0709,2.90933 2.12357,0.82959 4.63399,-0.11082 6.95099,-0.16621 -6.50499,6.20404 -2.54226,3.13064 -13.3502,8.93974 -4.05612,2.1801 -8.02317,4.5018 -12.19231,6.5046 -1.79414,0.8619 -3.61822,2.0695 -5.65543,2.0694 -0.88405,-1e-4 -0.85994,-1.3798 -1.28992,-2.0697 -4.77473,1.6833 -9.54948,3.3665 -14.32421,5.0499 -0.91241,-1.2389 -1.28526,-2.9975 -2.73722,-3.7165 -2.26804,-1.1231 -5.03732,-1.181 -7.61779,-1.4113 -3.2636,-0.2913 -6.55965,-0.063 -9.83818,-0.1465 -3.09387,-0.078 -6.1832,-0.2804 -9.27764,-0.338 -3.06034,-0.057 -6.21895,0.6772 -9.18298,-0 -1.6392,-0.3775 -2.54642,-1.9928 -3.81963,-2.9892 -18.73958,-0.8398 -1.34366,2.2978 -7.27154,-5.8434 -7.08141,-9.72526 -7.33549,6.8908 -5.28971,-7.63475 0,0 15.57903,-7.5128 15.57903,-7.5128 l 0,0 c 1.53691,0.85101 3.86715,1.08078 4.61069,2.55301 0.76568,1.51605 -0.95595,3.27487 -0.82935,4.93418 0.3575,4.68536 2.3298,3.88836 6.73011,5.14856 36.43179,-8.54537 3.32691,-4.97812 14.38515,1.8891 2.29584,1.4257 5.52965,0.893 8.32577,0.9162 3.49836,0.029 15.56516,-1.8558 19.77974,0.077 1.47792,0.6778 1.40316,2.6901 2.10473,4.0352 4.50916,-1.5859 9.0628,-3.0743 13.52745,-4.7576 3.19251,-1.2037 6.54324,-5.60589 9.43456,-3.8998 2.50681,1.4792 -3.9341,4.1112 -6.32785,5.733 -3.34859,2.2686 -7.01503,4.1706 -10.77257,5.8524 -1.44106,0.645 -11.32169,-0.7697 2.27506,-3.8112 15.831,-12.3263 6.59256,-2.1493 2.2544,-6.49 -0.85543,-0.8559 1.37392,-2.31657 0.83859,-3.35955 -0.48128,-0.93764 -4.00921,-0.49089 -3.1865,-1.21477 3.43148,-3.01936 8.71641,-3.90571 12.28744,-6.7931 0.95644,-0.77334 -2.58026,-0.009 -3.87039,-0.0126 1.78456,-1.13902 3.5691,-2.27805 5.35365,-3.41709 -1.75173,0.13638 -6.20158,1.73277 -5.25521,0.40913 1.97124,-2.75703 7.46122,-2.66662 8.99361,-5.63776 0.81638,-1.58287 -6.44813,1.14899 -5.82649,-0.50294 2.6264,-6.97938 15.51453,-8.09579 17.15425,-15.91175 -4.83183,0.13432 -12.53399,4.34924 -14.4955,0.40297 -1.98026,-3.98402 6.44863,-6.55334 9.91185,-9.62462 3.905,-3.46308 8.53505,-6.27262 12.17273,-9.96064 1.49275,-1.5134 1.67299,-3.79364 3.00212,-5.42419 6.16709,-7.56556 18.79659,-12.36224 26.40923,-16.52111 3.17989,-1.46806 6.00326,-3.90918 9.53967,-4.40417 1.24278,-0.17394 -0.3104,2.35114 -1.10336,3.22336 -2.56686,2.82346 -5.69004,5.21444 -8.74959,7.61456 -0.23285,0.18267 -0.74316,0.19955 -0.92944,-0.0216 -0.56602,-0.67215 -0.11752,-2.36763 -1.05868,-2.33927 -4.61498,0.13905 -8.99943,1.85193 -13.49915,2.77788 -7.01342,1.64596 -13.82605,5.59386 -21.04026,4.93788 -3.01811,-0.27444 -1.30624,-6.31274 -4.16107,-7.22939 -5.25919,-1.68863 -11.22492,1.22664 -16.75623,0.51318 -3.02653,-0.39038 -5.17004,-3.19486 -8.1691,-3.72821 -23.79683,-4.23203 -3.16898,3.54502 -15.22312,-1.38452 0,0 17.98747,-10.81376 17.98747,-10.81376 z"
       inkscape:connector-curvature="0" />
    <path
       style="fill:#008000;fill-opacity:1;stroke-width:4;stroke-miterlimit:4;stroke-dasharray:none;stroke:url(#radialGradient5929)"
       id="path3608"
       d="m 155.94981,939.1847 c 7.99507,0.14658 4.64028,-0.48744 12.42826,2.07496 2.62226,0.86278 5.33687,1.54789 7.83062,2.67434 2.58045,1.16561 5.43235,2.20547 7.31401,4.16661 1.86235,1.94103 0.76912,6.08748 3.42928,7.03055 4.96759,1.76106 10.68875,-0.0873 16.03312,-0.1309 5.38812,3.8024 -9.48629,14.39777 -4.22304,18.66089 2.08089,1.68546 22.16822,-1.53975 24.33592,-0.90639 1.60793,0.4698 0.37612,3.00334 0.56417,4.50502 1.67574,0.36154 3.35148,0.72308 5.02721,1.08463 -2.54418,2.4034 -7.47326,3.90571 -7.63254,7.2102 -0.003,0.0649 12.4782,-2.43301 13.41321,-1.83852 1.16951,0.74359 -1.44305,2.47835 -1.09044,3.72126 2.70523,9.53552 6.38043,-8.90905 0.94901,8.3622 32.87509,-5.73664 -2.40772,-0.94124 19.68345,-1.03086 3.70945,-0.015 7.37176,-0.75143 11.04671,-1.20251 3.95554,-0.48554 8.26531,-3.19157 11.84225,-1.60706 2.16564,0.95933 -1.78322,4.38015 -0.98295,6.41749 0.61185,1.55768 3.06219,1.84919 4.59328,2.77379 15.8365,-1.50171 8.32041,-3.69524 9.04592,4.2399 0.1037,1.1348 0.45503,3.0057 1.72899,3.0467 3.56079,0.1148 6.76827,-2.0534 10.26603,-2.6601 1.6532,-0.2868 5.36492,-1.4749 5.05226,0 -0.5997,2.8348 -4.28251,4.3201 -6.42376,6.4802 2.99882,-0.9745 5.99764,-1.9489 8.99645,-2.9234 0.36427,0.5969 0.3421,1.6786 1.09277,1.7906 1.92923,0.2877 3.86335,-0.5547 5.80552,-0.7617 1.76521,-0.188 4.60802,-1.8809 5.3121,-0.4229 0.85314,1.7666 -2.61501,3.2008 -3.06168,5.0829 -0.2363,0.9957 0.78325,1.9116 1.17487,2.8675 -9.09371,7.1564 16.95912,-8.1911 16.36167,-3.2309 -0.35054,2.9103 -9.29554,6.4794 -6.0553,6.9183 4.87222,0.66 8.6305,-4.297 13.19733,-5.9508 0.8633,-0.3127 3.21398,-0.5786 2.78881,0.1617 -1.16264,2.0243 -3.71139,3.1171 -5.56709,4.6756 2.53721,-1.067 4.80726,-3.1892 7.61162,-3.201 1.85654,-0.01 -2.88236,2.092 -4.27661,3.187 -0.4031,0.3165 -1.64103,1.1071 -1.10914,1.0426 0.37021,-0.045 11.2993,-5.1361 8.89454,-3.879 -8.38676,4.3842 -16.93767,8.513 -25.40651,12.7694 0.96484,-3.5835 5.96345,-5.3488 7.01342,-8.835 0.27828,-0.924 -1.19361,-1.5892 -1.79044,-2.3838 0,0 19.51023,-9.0509 19.51023,-9.0509 l 0,0 c -2.76966,2.2828 -6.11921,4.1089 -8.30897,6.8485 -0.46744,0.5848 0.68712,1.5344 1.46667,1.7119 1.14598,0.2609 2.3248,-0.3892 3.4872,-0.5839 -5.91333,3.3768 -11.8699,6.6939 -17.73997,10.1303 -0.52611,0.308 1.34823,-0.2703 1.69653,-0.7381 0.17687,-0.2376 -0.96352,-0.3164 -0.7522,-0.5303 0.78437,-0.7942 2.14736,-0.9788 2.98393,-1.7293 1.94436,-1.7442 -16.56038,9.5004 -7.18035,3.6597 -1.03906,-1.5638 -0.5948,-0.4511 1.13538,-3.3961 -0.22383,-0.788 -1.68428,-0.9059 -2.58473,-0.7869 -2.89321,0.3824 -6.109,3.8543 -8.4082,2.2397 -8.31206,-5.8368 20.00935,-8.0112 -4.18487,-4.5713 -4.63,0.1898 -6.33159,1.8324 -8.00025,-1.9688 -0.37546,-0.8553 0.57508,-2.5114 -0.42398,-2.7299 -5.10434,-1.1164 -7.25408,3.6966 -12.47327,-0.1821 -1.18258,-0.1753 -3.07588,0.4585 -3.54774,-0.5258 -0.59967,-1.2508 2.95457,-3.7446 1.43808,-3.8748 -3.79047,-0.3254 -7.09025,3.146 -10.89706,3.0627 -1.30951,-0.029 -0.37109,-2.4585 -1.24685,-3.3285 -2.18482,-2.1706 -6.50362,-1.9335 -8.37102,-4.558 -10.67813,-5.8493 2.24147,0.4579 -12.39507,-3.5946 -7.55524,-2.0919 -3.09351,-4.77266 -13.40204,-3.0708 -5.80893,0.9591 -11.07393,5.4487 -16.92188,4.7024 -2.52368,-0.322 1.24898,-4.4151 1.87346,-6.62266 -1.05234,-1.01504 -2.05995,-2.0686 -3.15702,-3.0451 -0.96049,-0.85493 -2.36543,-1.37863 -3.00999,-2.44417 -0.56672,-0.93688 0.80256,-3.19574 -0.38947,-3.1756 -4.04005,0.0683 -7.48668,3.62748 -11.51769,3.37678 -2.81921,-0.17532 6.08846,-6.00579 2.66062,-7.18973 -17.54371,2.32159 -5.05873,3.35552 -8.6989,-3.82914 -0.79875,-1.57652 -3.34858,-1.8874 -4.51519,-3.26896 -1.29668,-1.53559 -0.71176,-4.46806 -2.67891,-5.25066 -3.82742,-1.52268 -10.16833,2.2835 -12.53766,-0.80301 -2.34048,-3.04893 2.54743,-7.03466 3.82114,-10.55199 -23.17364,1.05666 -14.974,5.75129 -17.5164,-7.83406 -0.44755,-2.39139 0.33499,-6.84994 -2.37697,-6.957 -7.8009,-0.30797 -14.6409,5.9844 -22.44944,5.97693 -3.08396,-0.002 4.44183,-8.49081 -2.13033,-8.04137 0,0 12.52988,-7.45798 12.52988,-7.45798 z"
       inkscape:connector-curvature="0" />
    <path
       style="fill:#008000;fill-opacity:1;stroke-width:4;stroke-miterlimit:4;stroke-dasharray:none;stroke:url(#radialGradient5927)"
       id="path3610"
       d="m 60.969235,724.02814 c 2.232613,2.41461 4.502555,4.28689 4.879374,7.75531 0.27757,2.55478 -2.037681,5.31899 -0.863229,7.66163 1.185929,2.36552 7.337933,2.03069 7.013605,4.60629 -2.350997,18.67001 -19.257688,8.57813 -0.366012,16.33375 6.010442,12.03802 1.091865,-1.23466 0.150865,13.06216 -0.279403,4.245 4.438281,3.23538 1.840919,7.70161 -1.168911,2.00997 -5.293549,2.83417 -5.042313,5.08797 0.184408,1.65418 3.712209,-0.24628 5.5683,-0.36941 4.603483,1.01947 0.922054,-0.38998 -0.112724,2.48059 -0.163286,0.45296 1.06341,0.0606 1.595129,0.0908 -1.906666,0.96477 -3.986591,1.69687 -5.719985,2.89433 -0.569873,0.39368 1.50852,-0.009 4.032009,-0.43819 -1.001029,0.68703 -2.653628,0.97762 -3.0031,2.06112 -0.220004,0.68211 1.586592,-0.086 2.379889,-0.12893 -1.666977,1.01372 -4.320674,1.3455 -5.000959,3.04115 -1.115846,2.78131 8.389606,-3.49326 2.437291,1.11007 -1.09155,0.84417 -2.337194,1.51485 -3.505777,2.27228 -0.221795,0.36612 -0.277843,0.86712 -0.665401,1.09833 -5.619382,3.35241 -10.42705,3.9314 -0.781709,1.86924 0,0 -24.164717,8.91582 -24.164717,8.91582 l 0,0 c -0.714547,-0.0649 -2.769934,0.11938 -2.143642,-0.19459 10.826774,-5.42844 21.103654,-7.4196 9.147971,-4.74941 1.525386,-0.8413 3.276107,-1.42133 4.576159,-2.52391 0.290561,-0.24643 -0.788063,-0.20171 -1.107117,-0.41821 -0.233954,-0.15874 -0.18883,-0.63392 -0.481235,-0.65956 -0.991545,-0.087 -3.467758,1.12421 -2.962021,0.35751 0.217463,-0.32967 7.837173,-4.64942 8.52437,-5.04312 -2.814513,-3.73375 -2.974773,2.70414 2.344733,-3.69276 0.394564,-0.47447 -1.322418,-0.0472 -1.983627,-0.0707 1.397566,-0.97849 2.795134,-1.95699 4.1927,-2.93549 -2.846357,0.62962 -8.04936,4.47112 -8.539075,1.88884 -0.574797,-3.03092 6.268222,-3.32548 7.739596,-6.10451 0.584488,-1.10394 -2.779575,-0.88713 -3.483586,-1.93395 -3.574727,-5.31538 4.798163,-12.59824 -0.371797,-17.70541 -2.511246,-1.41978 -6.303001,-1.84309 -7.533737,-4.25933 -13.330395,-26.17088 18.337632,11.47298 5.868693,-19.07156 -1.196495,-2.931 -7.116656,-0.79984 -10.139126,-2.36357 -3.282658,-1.69832 -3.13542,-5.68978 -3.460255,-8.38179 0,0 19.1395,-9.24441 19.1395,-9.24441 z"
       inkscape:connector-curvature="0" />
  </g>
</svg>
